<svg xmlns="http://www.w3.org/2000/svg" xmlns:xlink="http://www.w3.org/1999/xlink" width="500" zoomAndPan="magnify" viewBox="0 0 375 374.999991" height="500" preserveAspectRatio="xMidYMid meet" version="1.0"><defs><g/><clipPath id="5747835aa9"><path d="M 45.699219 45.699219 L 329.300781 45.699219 L 329.300781 329.300781 L 45.699219 329.300781 Z M 45.699219 45.699219 " clip-rule="nonzero"/></clipPath><clipPath id="94afe9a958"><path d="M 187.5 45.699219 C 109.183594 45.699219 45.699219 109.183594 45.699219 187.5 C 45.699219 265.816406 109.183594 329.300781 187.5 329.300781 C 265.816406 329.300781 329.300781 265.816406 329.300781 187.5 C 329.300781 109.183594 265.816406 45.699219 187.5 45.699219 Z M 187.5 45.699219 " clip-rule="nonzero"/></clipPath></defs><g clip-path="url(#5747835aa9)"><g clip-path="url(#94afe9a958)"><path fill="#ef3a5d" d="M 45.699219 45.699219 L 329.300781 45.699219 L 329.300781 329.300781 L 45.699219 329.300781 Z M 45.699219 45.699219 " fill-opacity="1" fill-rule="nonzero"/></g></g><g fill="#ffffff" fill-opacity="1"><g transform="translate(109.745242, 260.565314)"><g><path d="M 13.09375 -152.109375 C 12.9375 -152.109375 13.160156 -152.1875 13.765625 -152.34375 C 14.515625 -152.488281 16.769531 -152.5625 20.53125 -152.5625 C 24.300781 -152.5625 29.796875 -152.5625 37.015625 -152.5625 L 62.0625 -152.5625 L 62.0625 17.15625 L 17.15625 17.15625 L 17.15625 -64.546875 C 17.15625 -91.929688 17.113281 -112.46875 17.03125 -126.15625 C 16.957031 -139.851562 16.847656 -147 16.703125 -147.59375 C 16.253906 -149.550781 15.050781 -151.054688 13.09375 -152.109375 Z M 67.9375 -152.5625 L 84.640625 -152.5625 C 88.992188 -152.5625 92.640625 -152.5625 95.578125 -152.5625 C 98.515625 -152.5625 100.8125 -152.488281 102.46875 -152.34375 C 103.96875 -152.1875 105.46875 -151.992188 106.96875 -151.765625 C 108.476562 -151.546875 109.984375 -151.132812 111.484375 -150.53125 C 115.546875 -149.476562 119.457031 -147.785156 123.21875 -145.453125 C 126.988281 -143.117188 130.414062 -140.375 133.5 -137.21875 C 136.582031 -134.0625 139.25 -130.5625 141.5 -126.71875 C 143.757812 -122.882812 145.492188 -119.007812 146.703125 -115.09375 C 151.054688 -101.257812 150.078125 -88.019531 143.765625 -75.375 C 140.148438 -68.15625 135.332031 -62.140625 129.3125 -57.328125 C 123.300781 -52.515625 116.457031 -48.976562 108.78125 -46.71875 C 103.363281 -45.363281 94.335938 -44.6875 81.703125 -44.6875 L 67.9375 -44.6875 L 67.9375 -76.515625 L 76.953125 -76.734375 C 82.671875 -76.734375 86.285156 -76.882812 87.796875 -77.1875 C 98.023438 -80.644531 102.765625 -88.394531 102.015625 -100.4375 C 101.554688 -108.851562 98.320312 -114.269531 92.3125 -116.6875 C 90.957031 -117.28125 86.515625 -117.578125 78.984375 -117.578125 L 67.9375 -117.578125 Z M 67.9375 -152.5625 "/></g></g></g></svg>